<?xml version="1.0" encoding="utf-8"?>
<!-- Generator: Adobe Illustrator 23.0.1, SVG Export Plug-In . SVG Version: 6.00 Build 0)  -->
<svg version="1.1" id="Layer_1" xmlns="http://www.w3.org/2000/svg" xmlns:xlink="http://www.w3.org/1999/xlink" x="0px" y="0px"
	 viewBox="0 0 3200 1800" style="enable-background:new 0 0 3200 1800;" xml:space="preserve">
<style type="text/css">
	.st0{fill:#711F17;}
	.st1{fill:#641714;}
	.st2{fill:#591213;}
	.st3{fill:#4C0F14;}
	.st4{fill:#3F0D16;}
	.st5{fill:#310A18;}
</style>
<rect x="0" class="st0" width="3200" height="1800"/>
<path class="st1" d="M0,708.49c0,0,20.43-17.49,33.29-22.64c12.86-5.14,23.14-9,30.86-14.14c7.71-5.14,1.29-5.14,18-16.71
	s7.71-28.29,33.43-19.29s27,5.14,33.43,5.14s14.14,0.02,23.14-7.7c9-7.72,33.43-20.58,52.71-39.87s25.71-2.57,39.86-34.71
	c14.14-32.14,28.29-34.71,39.86-24.43c11.57,10.29,23.14,32.14,23.14,32.14s0,28.29,21.86,16.71c21.86-11.57,57.86-42.43,65.57-27
	s6.43,42.43,28.29,29.57c21.86-12.86-2.57,3.86,33.43-18c36-21.86,42.43-27,54-46.29c11.57-19.29,21.86-14.14,42.43-32.14
	S595.14,476.29,608,466s19.29-30.86,25.71-10.29c6.43,20.57,0,47.57,23.14,41.14c23.14-6.43,43.71-2.57,55.29-10.29
	c11.57-7.71,5.14-9,29.57-19.29c24.43-10.29,27-11.57,59.14,0c32.14,11.57,38.57,14.14,41.14,30.86c2.57,16.71,3.86,19.29,9,30.86
	s9,18,20.57,12.86c11.57-5.14,6.43-1.29,12.86,18c6.43,19.29-7.71,23.14,6.43,36c14.14,12.86,11.57,21.86,27,14.14
	c15.43-7.71-5.14,0,21.86-11.57c27-11.57,11.57-21.86,27-11.57c15.43,10.29-5.14,10.29,33.43,18c38.57,7.71,51.43,14.14,63-1.29
	c11.57-15.43-20.57-9,19.29-29.57s52.71-18,65.57-19.29s15.43,41.14,27-2.57c11.57-43.71,24.43-28.29,42.43-56.57
	c18-28.29,7.71-11.57,18-28.29c10.29-16.71,9-3.86,18,10.29c9,14.14,25.71,37.29,30.86,41.14c5.14,3.86,7.71-5.14,18,10.29
	c10.29,15.43-6.43,9,7.71,32.14c14.14,23.14-6.43,11.57,14.14,23.14s29.57,11.57,41.14,11.57c11.57,0,19.29,2.57,30.86,3.86
	s0,19.29,16.71,14.14c16.71-5.14,15.43-3.86,33.43-14.14s34.71-19.83,34.71-19.83s20.57-13.4,34.71,0c14.14,13.4,0,10.83,29.57,22.4
	c29.57,11.57,14.14,6.43,41.14,12.86c27,6.43,25.71-39.86,57.86,14.14c32.14,54,18,57.86,43.71,75.86s23.14,15.43,41.14,18
	c18,2.57,24.43-2.57,32.14,10.29c7.71,12.86,19.29,36,19.29,36s2.57,23.14,32.14,0c29.57-23.14,21.86-25.71,45-41.14
	c23.14-15.43,7.71-15.43,46.29-24.43s20.57-29.57,43.71-43.71c23.14-14.14,15.43-11.57,32.14-25.71
	c16.71-14.14-3.86,0.2,33.43-21.12c37.29-21.31,15.43-20.03,47.57-25.17c32.14-5.14,37.29-3.86,51.43-15.43s7.71-11.57,24.43-34.71
	c16.71-23.14,27-30.86,27-30.86s11.57-12.86,27-18c15.43-5.14,25.71-2.57,32.14-20.57c6.43-18,10.29,25.71,14.14,47.57
	c3.86,21.86,37.29,25.71,43.71,51.43c6.43,25.71,14.14,50.14,30.86,52.71c16.71,2.57,18,5.14,37.29,5.14s7.71-2.57,38.57-6.43
	c30.86-3.86,54-2.57,57.86,0s2.57,1.48,23.14-5.69c20.57-7.17-3.86,0.54,34.71-9.74c38.57-10.29,27,10.29,46.29-12.86
	c19.29-23.14,23.14-38.57,27-39.86c3.86-1.29,15.96-7.61,15.96-7.61s2.04,2.46,5.89,16.61c3.86,14.14,11.57,14.14,19.29,15.43
	c7.71,1.29,0-10.29,19.29,9s-3.86,15.63,30.86,29.03c34.71,13.4,15.43,30.12,45,37.83c29.57,7.71,19.29,6.43,34.71,18
	c15.43,11.57,28.29,23.14,33.43,18C2786,682,2786,710.29,2786,682s1.29-33.43,7.71-37.29c6.43-3.86,9-5.14,15.43,0
	c6.43,5.14,6.43,5.14,21.86,14.14s16.71,15.43,28.29,15.43c11.57,0,2.57,3.86,20.57-2.57s11.57-19.29,18-6.43
	c6.43,12.86-9,25.71,6.43,12.86c15.43-12.86,11.57-33.43,25.71-37.29c14.14-3.86,15.43-2.57,25.71-5.14
	c10.29-2.57,11.57-2.57,32.14-5.14c20.57-2.57,21.86-15.43,29.57-5.14c7.71,10.29,9,15.43,11.57,19.29
	c2.57,3.86,10.29,14.14,14.14,18c3.86,3.86,5.14,18,12.86,23.14c7.71,5.14,20.57-2.57,21.86,9c1.29,11.57-5.14,23.14,0,23.14
	s12.86-21.86,19.29-15.43c6.43,6.43,18,6.43,28.29,27c10.29,20.57,12.86,25.71,23.14,38.57c10.29,12.86,7.71,6.43,19.29,19.29
	c11.57,12.86,32.14,14.14,32.14,20.57v992H0V708.49z"/>
<path class="st2" d="M0,864.57c0,0,8-3.43,12.57-9.71c4.57-6.29,15.43-4.57,21.14-8.57s9.14,1.71,10.86-8
	c1.71-9.71-1.71-5.14,3.43-17.14s9.14-12,18.29-18.29c9.14-6.29,12.57-14.86,16-17.14s7.43-23.43,10.29-14.86
	c2.86,8.57-0.57,19.43,8,15.43s32.57-9.71,34.29-6.86c1.71,2.86-0.57,10.29,6.86,12.57c7.43,2.29,12-2.86,22.29,7.43
	s25.14,28,31.43,35.43c6.29,7.43,8.57,8,12,13.71s-10.86,8.57,3.43,16c14.29,7.43-0.57,8.57,20,6.86s13.14-8.57,25.71-1.71
	c12.57,6.86,18.29,21.14,33.71,16.57c15.43-4.57,14.29-5.14,21.71-6.86s-0.57-14.29,18.29-2.86c18.86,11.43,19.43-2.86,29.71,14.29
	c10.29,17.14,37.14,16,53.14,24.57c16,8.57,13.14-0.57,30.29,27.43c17.14,28,25.71,20.57,43.43,15.43c17.71-5.14,17.14,1.14,36-12
	c18.86-13.14,13.71-11.43,25.14-17.14c11.43-5.71,3.43-6.29,15.43-8c12-1.71,20.57-4,24,1.14c3.43,5.14-7.43,17.71,15.43,2.86
	c22.86-14.86,13.71-8.57,33.14-21.14s14.86-13.14,36-18.29c21.14-5.14,45.14-61.14,73.14-66.29c28-5.14,20-8.57,35.43-18.86
	c15.43-10.29,11.43-4,23.43-15.43c12-11.43,13.71-16,20.57-20c6.86-4-1.71-19.43,13.14-7.43c14.86,12,28.57,12.57,28.57,12.57
	s-1.14,1.71,15.43-5.14c16.57-6.86,18.29-8,21.71-9.14c3.43-1.14,4.57-5.54,11.43-2.77c6.86,2.77,8.57-5.8,20.57,6.2
	s3.43,0,17.71,16.57c14.29,16.57,14.86,6.86,17.14,18.29s8.57,19.43,25.71,10.86c17.14-8.57,6.29-4,30.29,7.43
	c24,11.43,24,14.29,43.43,11.43c19.43-2.86,10.29,2.29,34.29-7.43s14.86-4.57,47.43-13.71c32.57-9.14,53.14-16.57,57.14-14.29
	s10.86,2.86,18.86,20.57c8,17.71-1.14,1.71,9.71,20.57c10.86,18.86-22.29,3.43,10.86,18.86c33.14,15.43,18.29,2.29,40.57,13.14
	c22.29,10.86,48.57,8,48.57,8s33.71,9.71,42.86,10.29s16-12,26.29,0c10.29,12,6.29,12.57,25.14,20c18.86,7.43-17.71-6.29,33.71,8.57
	c51.43,14.86,176,60.57,206.29,65.14c30.29,4.57,44.57-0.57,53.14-5.14c8.57-4.57,52-3.43,70.29-0.57
	c18.29,2.86,40.57,2.29,57.14-3.43s5.14,4.57,29.71-10.29c24.57-14.86,10.86,5.14,32.57-18.29c21.71-23.43,17.71-9.71,36.57-36
	c18.86-26.29,5.71-13.32,30.29-36.09s30.86-16.48,34.86-29.63c4-13.14,16.57,13.14,20.57,9.14s10.86-0.57,18.29-22.86
	c7.43-22.29-0.57-33.14,12-24c12.57,9.14-1.14,18.29,16,14.86c17.14-3.43,25.14-4.57,33.71-21.14c8.57-16.57,9.14-3.43,22.29-32
	s4-21.71,26.86-41.71s16,7.43,26.29-21.71c10.29-29.14,7.43-29.71,12.57-32.57c5.14-2.86,4-2.86,8.57-4.57
	c4.57-1.71,28,0.57,36.57-5.71c8.57-6.29,8.57-5.71,19.43-13.71s22.86-16,23.43-18.29c0.57-2.29-1.71-6.29,16-24
	c17.71-17.71,30.86-25.14,39.43-34.86c8.57-9.71,10.86-10.29,16.57-16.57c5.71-6.29,1.71-20,16,4.57
	c14.29,24.57,16,6.86,17.71,22.86c1.71,16,8.57,19.43,22.29,18.86c13.71-0.57,13.71,3.43,16.57,12c2.86,8.57,26.86,41.71,44,54.86
	c17.14,13.14,26.86,22.86,34.29,45.14c7.43,22.29,12.57,32.26,14.86,52.41c2.29,20.16-2.29,20.73,4.57,24.16
	c6.86,3.43,10.86,5.14,11.43,20.57c0.57,15.43,6.86,11.43,16.57,4.57c9.71-6.86,9.71-16.57,17.14-13.71
	c7.43,2.86,7.43-3.43,13.71,7.43c6.29,10.86-9.14,12,12,19.43s8-8.57,25.71,7.43c17.71,16,26.29,22.29,32.57,23.43
	c6.29,1.14,4.57-6.86,20-2.86s1.14,5.14,17.14,15.43c16,10.29,15.43,20,22.86,10.29s8-16,17.14-13.14c9.14,2.86,3.43,6.29,18.29-4
	c14.86-10.29,6.86-14.29,22.29-9.71c15.43,4.57,25.14,26.86,32,18.29c6.86-8.57,11.43-9.14,22.29-22.86s9.14-16.57,18.86-18.29
	s11.43-5.14,21.71-2.86c10.29,2.29-6.86,11.43,12.57,13.14c19.43,1.71,9.14,9.14,33.14,2.86c24-6.29,3.43-7.43,29.71-9.71
	c26.29-2.29,21.71,7.43,34.86-5.71c13.14-13.14,11.43-14.86,14.86-20c3.43-5.14,10.86-21.71,19.43-1.71
	c8.57,20,2.86,20.57,25.14,41.14c22.29,20.57,42.86,44,54.86,46.29c12,2.29,10.86,23.43,18.29,12c7.43-11.43,8.57-13.71,18.86-19.43
	c10.29-5.71,20.57,2.29,27.43-10.29c6.86-12.57,1.14-17.71,13.71-22.86c12.57-5.14,20.57-7.43,20.57-7.43V1800H0L0,864.57z"/>
<path class="st3" d="M0,981.14c0,0,10.14-9.86,14-15c3.86-5.14,18-0.86,20.14,0c2.14,0.86,5.57,15,11.14,15s13.29-8.57,17.14,0
	c3.86,8.57,3.43,8.57,11.14,15.86s11.14,10.29,20.57,17.14c9.43,6.86-0.86,15.86,11.57,14.14c12.43-1.71,5.57-4.71,20.57-1.71
	s17.57,2.57,24,1.93c6.43-0.64,7.71,6.22,6.86,13.07c-0.86,6.86-9.81,9,0.24,15.43s7.91-7.29,19.05,6s3.86,26.14,18,27.43
	c14.14,1.29,8.14,6,17.57-11.14c9.43-17.14,11.14-21.86,21.43-25.29c10.29-3.43-1.71,1.29,20.14-6s22.71,0.86,33.86-5.57
	c11.14-6.43,16.29-2.14,23.57-10.29c7.29-8.14,6.43-0.86,11.14,0.43c4.71,1.29,7.29-1.29,18.86,6.43s11.14,9,21.43,8.14
	c10.29-0.86,10.71-3.86,18.43-11.57c7.71-7.71-6-12,16.29-16.29s33.43-5.14,38.57-7.71c5.14-2.57,16.29,0.43,19.29-7.71
	c3-8.14,10.29-17.57,25.71-23.14c15.43-5.57,15.43-4.71,22.71-9c7.29-4.29,11.57-8.83,13.71-8.06c2.14,0.77,4.29,7.63,13.71,17.49
	c9.43,9.86,19.71,15,31.71,29.14c12,14.14,4.71,20.57,13.71,14.14s11.14-19.29,14.14-11.57c3,7.71,1.71,9.86,13.29,12.86
	c11.57,3,10.29,3,23.14-4.29c12.86-7.29,6.86,4.29,17.57-16.29c10.71-20.57,5.57-26.14,16.29-30.86s4.71-2.57,20.14-7.71
	c15.43-5.14,3.86,2.14,29.57-11.57s26.57-8.14,30.43-18c3.86-9.86,16.71-8.57,18-7.29c1.29,1.29,0.43-4.71,11.14-11.57
	c10.71-6.86,12.86-6,12.86-6s9.86,48.43,15,56.57c5.14,8.14,0.86,25.71,14.57,30.43c13.71,4.71,11.57,25.71,18.86,27.43
	c7.29,1.71,6.43,8.14,15-6.43c8.57-14.57,8.57-12.18,15.43-18.09c6.86-5.91,1.29-5.05,10.71-11.05c9.43-6,13.71,2.57,19.29-12.86
	c5.57-15.43-1.29,16.11,9,23.91s8.14,16.37,16.29,14.66s14.57-3.86,18.43,7.29c3.86,11.14,16.71,24.86,25.71,31.71
	c9,6.86,3.86,24.86,18,31.29c14.14,6.43,21.43,35.14,37.29,26.57s49.71-33.86,52.29-44.57c2.57-10.71,10.71-18,10.71-18
	s8.57,10.29,21.86,15.43c13.29,5.14,18,5.14,33.43,2.57c15.43-2.57,37.29,4.71,42.43-9c5.14-13.71,5.14-21.43,26.14-37.71
	s37.71-29.14,37.71-29.14s24.86-6,37.71-18c12.86-12,12.86-21,30-23.57c17.14-2.57,34.29,4.71,41.57-3.43
	c7.29-8.14,15.43-11.14,30-22.71c14.57-11.57,42.43-42,48.43-52.29c6-10.29,10.71,0,18.86-15s14.14-7.29,21.43-13.71
	c7.29-6.43,30.86,0.86,34.29-12.43c3.43-13.29,6.43-17.57,20.14-27.86c13.71-10.29,40.71-30.86,48.43-38.57
	c7.71-7.71,21.14-14.14,28.14-1.29c7,12.86,44.71,53.14,61.86,45.86c17.14-7.29,36-8.57,48-1.29c12,7.29,19.29-6.86,33.43,13.71
	c14.14,20.57,36.86,37.71,36.86,37.71s4.29,27,12.43,30.86c8.14,3.86,9.43,21.43,17.57,27c8.14,5.57,11.14,10.71,21,10.71
	c9.86,0,12.86-12.17,17.57,7.2c4.71,19.37,25.29,19.8,24.86,42.09c-0.43,22.29-9.86,73.29,6.43,80.14
	c16.29,6.86,32.57,16.71,46.71,43.71c14.14,27,14.14,40.71,18.86,39.43c4.71-1.29,3.43-6.86,10.29,4.29c6.86,11.14,9,34.29,18,43.29
	s7.71,15,21,21.43c13.29,6.43,17.14,4.29,22.71,12c5.57,7.71,8.14,21.43,15,25.29c6.86,3.86,9.43,4.29,9.43,4.29
	s0,19.29,10.29,24.86c10.29,5.57,10.71,23.57,16.29,21.86c5.57-1.71,28.29-15.43,39-15.86c10.71-0.43,24.86-12.86,41.57-26.57
	c16.71-13.71,29.14-29.57,52.29-23.57c23.14,6,17.14-3,28.71,9.86c11.57,12.86,21.86,17.14,32.57,9.43
	c10.71-7.71,27.86-30.86,41.14-29.14c13.29,1.71,17.14,17.57,35.57,12c18.43-5.57,9.43,0.86,34.29-9
	c24.86-9.86,26.14-5.14,29.57-14.57c3.43-9.43-3.43-6,6-17.14c9.43-11.14,14.14-9.43,23.14-19.29c9-9.86,5.14,0,15-13.71
	c9.86-13.71,18-15.43,19.71-28.29c1.71-12.86,24-17.94,29.14-9.4c5.14,8.54,2.14,16.69,17.57,9.4c15.43-7.29,6.86-3.43,22.29-11.14
	c15.43-7.71,13.29-6.86,23.57-12.43c10.29-5.57,36.86-9.43,50.57-9.43c13.71,0,13.29,10.71,24,0c10.71-10.71,12.86-4.29,13.71-17.57
	c0.86-13.29,14.14-22.71,23.14-30c9-7.29,18-12.86,18-12.86s-2.57,16.29,8.14,16.71c10.71,0.43,31.29,13.71,40.29,5.57
	c9-8.14,11.57-9.43,19.71-10.29s-0.86,1.29,12-3c12.86-4.29,9.86-9.43,17.14-6c7.29,3.43,5.14,4.29,15.86,5.57
	c10.71,1.29,13.71-3.86,20.14-7.71c6.43-3.86,10.71,1.29,12.86,3.43c2.14,2.14,0-0.43,4.71,7.71s6,8.14,17.14,8.14
	s6.43-0.43,14.14-0.86c7.71-0.43,9-13.71,14.57,0c5.57,13.71,16.71,52.29,22.71,40.29s16.29-13.71,36.86,5.14
	c20.57,18.86,30.86,19.71,45,28.71c14.14,9,20.14,13.29,25.71,9c5.57-4.29,14.14-20.94,28.29-18.4c14.14,2.54,30.86-3.03,30.86-3.03
	s1.71,10.71,10.29,6.86c8.57-3.86,24-19.29,42-21.86s18-7.29,30.43-8.14c12.43-0.86,18.86-1.71,26.57,1.71
	c7.71,3.43,15.43,6.86,15.43,6.86V1800H0L0,981.14z"/>
<path class="st4" d="M0,1259.43c0,0,39.43-1.71,44.57-13.14c5.14-11.43,25.14-15.43,32.57-20c7.43-4.57,14.86-5.14,14.86-5.14
	s21.14,37.71,38.29,44.57c17.14,6.86,7.43,16.39,41.71,12.76c34.29-3.62,34.29,10.09,34.29,10.09s6.29,23.43,16.57,33.71
	c10.29,10.29,1.71,17.71,15.43,22.86c13.71,5.14,9.71,16.57,24,14.86c14.29-1.71,25.71-3.43,32.57-18.86s14.86-24.57,32-25.71
	s27.43-9.14,55.43-15.43s45.14-10.29,53.71-16.57c8.57-6.29,22.29-14.47,33.71-4.95c11.43,9.52,27.43,6.09,32.57,26.66
	s17.71,20.57,30.86,16c13.14-4.57,42.29-20.57,57.71-18.29c15.43,2.29,24.57,8.57,48.57-9.71c24-18.29,97.71-17.33,109.71-14.66
	s22.29,9.34,27.43,0c5.14-9.34,18.86-11.05,38.29-4.19c19.43,6.86,55.43,32.57,73.14,21.71s3.43-14.47,50.86-17.52
	c0,0,30.86-20.19,53.71-23.05c22.86-2.86,42.29-25.14,46.86-34.29c4.57-9.14,22.86-26.86,36-35.43c13.14-8.57,8.57-7.24,28.57-18.19
	c20-10.95,37.14-24.1,38.86-29.81c1.71-5.71,5.71-9.14,5.71-9.14s8-1.09,19.43-5.12c11.43-4.03,21.14-6.88,23.43-6.88
	c2.29,0-9.71,1.71,7.43,0c17.14-1.71,9.71,5.14,17.14-1.71c7.43-6.86,19.43-3.43,19.43-3.43s-1.14-8,14.29-17.14
	c15.43-9.14,10.86-3.43,19.43-12c8.57-8.57-6.29,0,8.57-8.57c14.86-8.57-1.14-6.29,20-10.86c21.14-4.57,23.43-12.57,26.29-14.29
	c2.86-1.71,6.86,0,6.86,0s-6.86,18.29,4,26.86c10.86,8.57,8.57,12,11.43,17.71c2.86,5.71,9.71,8.57,11.43,13.71
	c1.71,5.14,8,14.34,9.14,16.6c1.14,2.26,5.71,11.97,12,13.12c6.29,1.14,8,0,8.57,4.57s-1.71,6.29,5.71,4
	c7.43-2.29,5.71-11.43,9.71-3.43s9.71,16.57,12,20c2.29,3.43,5.14,21.71,5.14,21.71s-1.14,5.14,7.43,13.14s2.86-12,14.86,14.86
	s14.86,40.57,26.86,43.43c12,2.86,14.29,13.14,26.86,10.86c12.57-2.29,10.86-5.14,12.57,5.14c1.71,10.29-9.71,21.14-2.29,24.57
	c7.43,3.43,3.43-1.14,12,5.71c8.57,6.86-1.14,0.57,14.86,13.71c16,13.14,30.86,12.57,40.57,20.57c9.71,8,8.57,9.71,20,9.71
	c11.43,0,12.57,0,21.14,0s16-1.71,25.71,8.57c9.71,10.29,7.43,13.14,24,18.86c16.57,5.71,11.43,5.71,27.43,5.71
	s20.57,0.57,25.71,5.14c5.14,4.57,21.14,7.43,22.86,13.14c1.71,5.71,10.86-1.71,23.43-3.43c12.57-1.71,18.86-8,20.57-0.57
	c1.71,7.43,1.14,17.71,5.71,24.57c4.57,6.86,26.86,15.43,49.71,8.57c22.86-6.86,13.14-7.43,38.29-9.14
	c25.14-1.71,32.57,2.29,44.57-4.57s18.86-6.29,21.71-13.71c2.86-7.43,1.71-13.71,6.86-17.14s-20.57-14.29,9.71-6.29
	c30.29,8,39.43,0.57,43.43,15.43c4,14.86,0,8.57,14.29,16.57c14.29,8,42.86,17.04,48,21.38s2.29,3.76,14.86,11.76
	c12.57,8,18.29,2.86,22.29,16.57c4,13.71,1.14,10.86,5.14,21.14c4,10.29-6.86,8.57,21.14,20c28,11.43,19.43,17.71,33.14,11.43
	c13.71-6.29,11.43-4.57,23.43-9.71s-4-29.14,16-6.86c20,22.29,42.86,29.14,59.43,27.43c16.57-1.71,5.71,6.86,23.43-5.14
	c17.71-12,5.71-4,28.57-18.86s22.86-11.43,37.71-25.71c14.86-14.29,13.14-16,26.86-27.43s4-6.86,22.29-17.71
	c18.29-10.86,9.71-10.29,25.71-14.86c16-4.57,36.57,1.71,38.29,2.29s-0.57,2.86,9.71-6.86c10.29-9.71,18.86-4,28-13.71
	s6.29-7.43,16.57-21.14c10.29-13.71,3.43-5.14,13.71-20.57c10.29-15.43-0.57-16.57,14.86-18.86c15.43-2.29,21.14,5.71,31.43-12
	c10.29-17.71,8-22.29,19.43-29.14c11.43-6.86,32-16,32-16s5.14,28.57,18.86,29.71c13.71,1.14,11.43,2.29,16-2.29
	c4.57-4.57,12-2.86,21.14,0c9.14,2.86,23.43,5.14,23.43,5.14s2.29-0.57,5.14,7.43c2.86,8,4.57,22.86,4.57,22.86l15.43-5.71l20,5.14
	c0,0-0.57,4.57,0,9.71c0.57,5.14-2.29,4,4,13.14c6.29,9.14-4.57,0,6.29,9.14s13.14,0.57,16.57,13.71c3.43,13.14,5.71,9.71,8,20.57
	c2.29,10.86,6.29,29.71,16,34.29c9.71,4.57,4.57,6.86,9.71,4.57c5.14-2.29,8-29.71,21.14-27.43c13.14,2.29,9.71,1.14,14.86,5.14
	s5.71,9.14,17.14,11.43c11.43,2.29,8.57-5.14,17.14,2.86c8.57,8,5.14,14.86,13.71,26.86s9.14,11.43,22.29,18.86
	s17.14,6.86,18.86,10.86s25.71,50.29,36,46.29s17.71-1.14,26.86-7.43c9.14-6.29,16.57-13.71,22.86-18.86c6.29-5.14,23.43,4,23.43,4
	s-9.14,9.71,13.14-3.43c22.29-13.14,25.71,9.71,25.71,9.71s-13.71,14.29,16.57,5.14c30.29-9.14,24-4,44.57-18.86
	c20.57-14.86,26.86-15.43,31.43-20.57c4.57-5.14,13.71-22.29,13.71-22.29l4.57-6.86V1800H0L0,1259.43z"/>
<path class="st5" d="M0,1677.14c0,0,25.71-25.71,32.57-27.43c6.86-1.71,1.14,0.57,16.57-5.71s10.86-6.29,29.71-13.14
	c18.86-6.86,24-6.86,24-6.86s9.14,8.57,27.43,3.43s34.86-12,37.14-13.71c2.29-1.71-9.71,1.71,12-6.86s53.14-11.43,53.14-11.43
	s1.71-5.71,13.14-19.43c11.43-13.71,24.57-26.86,24.57-26.86s5.14,0,14.29-6.29c9.14-6.29,17.14-26.86,17.14-26.86l2.86-2.86
	c0,0,25.14-1.14,49.14-5.71s13.71-1.14,20.57,2.86s41.14,5.71,41.14,5.71s8.57,12.57,16.57-1.71c8-14.29,14.29-13.14,21.14-25.14
	s9.14-19.43,21.71-31.43c12.57-12,16.57-16,26.86-24.57c10.29-8.57,14.29-12.57,24-17.14s32-22.86,32-22.86v-14.86
	c0,0,33.14-26.86,54.86-23.43l10.86-9.71c0,0,13.71,31.43,30.86,29.71c17.14-1.71,18.29-13.14,18.29-13.14s41.71,45.14,49.14,50.86
	c7.43,5.71,30.86,18.29,35.43,24.57c4.57,6.29,33.71,16.57,33.71,21.71c0,5.14,0.57,22.86,9.14,28c8.57,5.14,20,13.71,21.71,12
	c1.71-1.71,25.71-18.29,25.71-18.29s-2.29-7.43,30.29,6.29c32.57,13.71,36,34.86,49.14,39.43c13.14,4.57,33.71,6.29,33.71,6.29
	l24.57-61.14c0,0,37.14-20,37.14-28s-1.71-13.14,8.57-8c10.29,5.14,32.57,29.71,34.29,42.29c1.71,12.57,17.71,12,26.86,17.14
	c9.14,5.14-2.29,1.71,24,12c26.29,10.29,41.14,11.43,41.14,11.43s14.86-14.29,34.29,3.43c19.43,17.71,28,38.29,28,38.29l24-5.14
	c0,0,13.14-11.43,26.86-7.43c13.71,4,18.86,16,30.29,39.43s25.71,61.14,41.71,66.29c16,5.14,35.43,24,35.43,24
	s0.57,0.57,11.43-13.14c10.86-13.71,37.14-14.86,52-28.57c14.86-13.71,12.57-17.14,18.29-25.14c5.71-8,22.86-7.43,35.43-16
	c12.57-8.57,46.29-28.57,61.14-31.43c14.86-2.86,11.43-1.71,41.14-5.14c29.71-3.43,30.86,7.43,40.57-10.86
	c9.71-18.29,9.14-19.43,14.86-23.43c5.71-4,37.71-29.14,37.71-29.14s22.86,8,29.14,9.14c6.29,1.14,24-9.71,29.14,4.57
	s4,30.86,4,30.86s7.43,10.86,20,15.43c12.57,4.57,12.57-12,19.43,1.71s24,21.71,48.57,21.71s44.57,8.57,52.57,9.14
	s-4.57-18.86,20,16c24.57,34.86,36,31.43,42.86,37.14s9.71,15.43,25.71,22.86s25.71,22.86,25.71,22.86s19.43-9.14,29.14-12.57
	c9.71-3.43,1.14,1.14,32.57-7.43c31.43-8.57,34.86-11.43,45.71-16.57c10.86-5.14,10.86-5.14,10.86-5.14s16.57,12,26.29,23.43
	s6.29,4.57,17.71,13.71c11.43,9.14,18.86,9.14,20,20.57c1.14,11.43,5.14,14.86,13.71,17.14c8.57,2.29,37.14,7.43,43.43,17.14
	s-11.43,2.29,16.57,15.43s55.43,36.57,75.43,30.29c20-6.29,14.86,0.57,43.43-20c28.57-20.57,36.57-44.57,42.86-31.43
	c6.29,13.14,27.43-13.71,32.57-17.14s20.57-29.14,36-30c15.43-0.86,30.86,0,33.43-0.86c2.57-0.86,19.71,2.57,36.86-18
	c17.14-20.57,36.86-47.14,57.43-40.29c20.57,6.86,30.86-18.86,30.86-18.86s6,20.57,34.29,38.57c28.29,18,10.29,36,30.86,36
	c20.57,0,18.86-16.29,36-24.86c17.14-8.57,35.14-7.71,45.43-1.71s18,38.57,37.71,49.71c19.71,11.14,21.43,29.14,35.14,23.14
	c13.71-6,24,16.29,33.43,30.86c9.43,14.57,20.57,38.1,38.57,25.91s43.71-46.48,61.71-46.48s28.29,9.43,48.86,23.14
	c20.57,13.71,7.71,20.02,21.43,26.73c13.71,6.7,19.71,13.85,19.71,13.85H0L0,1677.14z"/>
</svg>
